<svg width="42" height="42" viewBox="0 0 42 42" fill="none" xmlns="http://www.w3.org/2000/svg">
<rect width="42" height="42" rx="21" fill="white"/>
<path d="M35 35H33C33 33.346 31.654 32 30 32H26C24.346 32 23 33.346 23 35H21C21 32.243 23.243 30 26 30H30C32.757 30 35 32.243 35 35ZM20 21C19.7348 21 19.4804 21.1054 19.2929 21.2929C19.1054 21.4804 19 21.7348 19 22V28H21V22C21 21.7348 20.8946 21.4804 20.7071 21.2929C20.5196 21.1054 20.2652 21 20 21Z" fill="black"/>
<path d="M37 17H19V19H23V24C23 26.757 25.243 29 28 29C30.757 29 33 26.757 33 24V19H37V17ZM28 27C26.346 27 25 25.654 25 24V23H31V24C31 25.654 29.654 27 28 27ZM31 21H25V19H31V21Z" fill="black"/>
<path d="M30.798 15C29.87 10.441 25.83 7.00002 21 7.00002C18.6722 6.99568 16.4162 7.80541 14.6225 9.28903C12.8288 10.7726 11.6103 12.8367 11.178 15.124C7.655 15.754 5 18.849 5 22.5C5 26.636 8.365 30 12.5 30H17V28H12.5C11.0418 27.9984 9.64377 27.4185 8.61267 26.3874C7.58156 25.3562 7.00159 23.9582 7 22.5C7.00414 21.1085 7.53463 19.7701 8.48492 18.7536C9.4352 17.7371 10.7349 17.1177 12.123 17.02L12.959 16.963L13.049 16.13C13.2591 14.1691 14.1877 12.3555 15.656 11.0389C17.1242 9.72229 19.0279 8.99597 21 9.00002C24.72 9.00002 27.845 11.555 28.737 15H30.798Z" fill="black"/>
</svg>
