<svg width="30" height="30" viewBox="0 0 30 30" fill="none" xmlns="http://www.w3.org/2000/svg">
<g id="mdi:account-tie">
<path id="Vector" d="M15 3.75C17.7625 3.75 20 5.9875 20 8.75C20 11.5125 17.7625 13.75 15 13.75C12.2375 13.75 10 11.5125 10 8.75C10 5.9875 12.2375 3.75 15 3.75ZM20 16.925C20 18.25 19.65 21.3375 17.2625 24.7875L16.25 18.75L17.425 16.4C16.65 16.3125 15.8375 16.25 15 16.25C14.1625 16.25 13.35 16.3125 12.575 16.4L13.75 18.75L12.7375 24.7875C10.35 21.3375 10 18.25 10 16.925C7.0125 17.8 5 19.375 5 21.25V26.25H25V21.25C25 19.375 23 17.8 20 16.925Z" fill="black"/>
</g>
</svg>